<svg xmlns="http://www.w3.org/2000/svg" width="1200" height="720" viewBox="0 0 1200 720" role="img" aria-labelledby="title desc">
  <title id="title">Wealth transfer and legacy planning guide</title>
  <desc id="desc">A premium editorial image representing family legacy, estate planning, and generational wealth transfer.</desc>
  <defs>
    <linearGradient id="bg" x1="0" y1="0" x2="1" y2="1">
      <stop stop-color="#001A38"/>
      <stop offset=".52" stop-color="#43235b"/>
      <stop offset="1" stop-color="#C9A14A"/>
    </linearGradient>
    <linearGradient id="gold" x1="0" y1="0" x2="1" y2="1">
      <stop stop-color="#F4E8C8"/>
      <stop offset="1" stop-color="#C9A14A"/>
    </linearGradient>
  </defs>
  <rect width="1200" height="720" rx="36" fill="url(#bg)"/>
  <circle cx="326" cy="270" r="82" fill="#FFFFFF" opacity=".95"/>
  <circle cx="238" cy="438" r="64" fill="#FFFFFF" opacity=".82"/>
  <circle cx="414" cy="438" r="64" fill="#FFFFFF" opacity=".82"/>
  <path d="M326 352v84M270 438h112" fill="none" stroke="url(#gold)" stroke-width="18" stroke-linecap="round"/>
  <path d="M170 548c40-70 100-106 156-106s116 36 156 106" fill="none" stroke="#FFFFFF" stroke-width="26" stroke-linecap="round" opacity=".92"/>
  <path d="M214 552c22-40 58-62 96-62M350 490c38 0 74 22 96 62" fill="none" stroke="#C9A14A" stroke-width="16" stroke-linecap="round"/>
  <rect x="615" y="190" width="360" height="68" rx="34" fill="#FFFFFF" opacity=".16"/>
  <rect x="615" y="302" width="270" height="28" rx="14" fill="#FFFFFF" opacity=".72"/>
  <rect x="615" y="362" width="405" height="28" rx="14" fill="#FFFFFF" opacity=".56"/>
  <rect x="615" y="422" width="330" height="28" rx="14" fill="#FFFFFF" opacity=".56"/>
  <text x="615" y="242" fill="#FFFFFF" font-family="Inter, Arial, sans-serif" font-size="44" font-weight="800">Wealth Transfer</text>
  <text x="615" y="532" fill="#F4E8C8" font-family="Inter, Arial, sans-serif" font-size="58" font-weight="800">Legacy Planning</text>
</svg>
